<?xml version="1.0" encoding="iso-8859-1"?>
<!-- Generator: Adobe Illustrator 17.1.0, SVG Export Plug-In . SVG Version: 6.00 Build 0)  -->
<!DOCTYPE svg PUBLIC "-//W3C//DTD SVG 1.1//EN" "http://www.w3.org/Graphics/SVG/1.1/DTD/svg11.dtd">
<svg version="1.1" id="Capa_1" xmlns="http://www.w3.org/2000/svg" xmlns:xlink="http://www.w3.org/1999/xlink" x="0px" y="0px"
	 viewBox="0 0 174.557 174.557" style="enable-background:new 0 0 174.557 174.557;" xml:space="preserve" width="512" height="512" fill="black">
<path d="M174.557,120.009c0-0.102-0.012-0.201-0.02-0.302v-8.565v-0.95h-0.048c-0.357-7.629-4.946-14.153-11.48-17.285
	L148.754,60.43c-0.066-0.151-0.146-0.292-0.229-0.431V35.28c0-11.033-8.977-20.01-20.01-20.01H46.021
	c-11.033,0-20.01,8.977-20.01,20.01V60c-0.081,0.137-0.16,0.276-0.226,0.424L11.451,92.943c-6.493,3.146-11.047,9.649-11.403,17.248
	H0v0.95v20.248v27.896h8V135.39h158.537v23.896h8V131.39v-11.187C174.54,120.137,174.557,120.075,174.557,120.009z M34.012,35.28
	c0-6.622,5.388-12.01,12.01-12.01h82.494c6.622,0,12.01,5.388,12.01,12.01v22.757h-21.608c0.028-0.339,0.052-0.679,0.052-1.024
	V41.619c0-6.7-5.451-12.15-12.151-12.15H69.541c-6.7,0-12.15,5.45-12.15,12.15v15.394c0,0.346,0.023,0.686,0.052,1.024H34.012V35.28
	z M8,127.39v-16.248c0-6.744,5.487-12.231,12.231-12.231h134.074c6.744,0,12.231,5.487,12.231,12.231v16.248H8z"/>
<g>
</g>
<g>
</g>
<g>
</g>
<g>
</g>
<g>
</g>
<g>
</g>
<g>
</g>
<g>
</g>
<g>
</g>
<g>
</g>
<g>
</g>
<g>
</g>
<g>
</g>
<g>
</g>
<g>
</g>
</svg>
