<?xml version="1.0" encoding="iso-8859-1"?>
<!-- Generator: Adobe Illustrator 19.0.0, SVG Export Plug-In . SVG Version: 6.00 Build 0)  -->
<svg fill="#797979" xmlns="http://www.w3.org/2000/svg" xmlns:xlink="http://www.w3.org/1999/xlink" version="1.1" id="Layer_1" x="0px" y="0px" viewBox="0 0 504.742 504.742" style="enable-background:new 0 0 504.742 504.742;" xml:space="preserve" width="512" height="512">
<g>
	<path d="M483.228,463.309c33.457-22.607,17.346-74.922-22.867-74.922h-35.683c-8.425,0-15.245,6.829-15.245,15.245v85.706   c0,20.212,30.489,20.115,30.489,0v-19.036h8.641l26.152,29.208c13.308,14.861,36.351-5.109,22.714-20.338L483.228,463.309z    M439.923,418.876h20.438c13.832,0,13.838,20.936,0,20.936h-20.438V418.876z"/>
	<path d="M68.005,453.87c42.051-7.707,36.424-70.293-6.347-70.293H18.57c-20.144,0-20.165,30.489,0,30.489h43.088   c5.858,0,6.619,8.757,0.852,9.815c-68.725,12.592-69.451,73.077-43.94,73.077h63.163c20.144,0,20.165-30.489,0-30.489H38.739   C45.995,456.442,54.967,456.259,68.005,453.87z"/>
	<path d="M27.138,30.492h7.775v68.113c0,20.209,30.489,20.119,30.489,0V15.248c0-8.425-6.83-15.245-15.245-15.245h-23.02   C6.919,0.003,7.034,30.492,27.138,30.492z"/>
	<path d="M263.622,82.892h-42.441c-20.144,0-20.165,30.489,0,30.489h42.441c29.122,0,46.144-32.988,29.371-56.69   C309.737,33.029,292.786,0,263.622,0h-42.441c-20.144,0-20.165,30.489,0,30.489h42.441c7.239,0,7.243,10.957,0,10.957h-25.854   c-20.144,0-20.165,30.489,0,30.489h25.854C270.862,71.936,270.865,82.892,263.622,82.892z"/>
	<path d="M289.508,431.22h-8.817v-29.583c0-20.144-30.489-20.165-30.489,0v29.583h-19.82v-29.583c0-20.144-30.489-20.165-30.489,0   v44.828c0,8.419,6.825,15.245,15.245,15.245h35.065v22.818c0,20.144,30.489,20.165,30.489,0v-22.818h8.817   C309.652,461.709,309.673,431.22,289.508,431.22z"/>
	<path d="M462.309,82.892h-34.71c-20.144,0-20.165,30.489,0,30.489h34.71c47.682,0,47.7-71.935,0-71.935h-17.564l1.291-10.957   h37.114c20.144,0,20.165-30.489,0-30.489h-50.668c-7.73,0-14.235,5.784-15.139,13.46l-4.884,41.446   c-1.068,9.054,6.014,17.029,15.139,17.029h34.71C469.707,71.936,469.705,82.892,462.309,82.892z"/>
	<path d="M439.688,352.639c0,20.144,30.489,20.165,30.489,0V151.945c0-20.144-30.489-20.165-30.489,0v85.102H310.841   c-5.498-21.119-22.156-37.776-43.275-43.275v-41.832c0-20.138-30.489-20.172-30.489,0v41.832   c-21.119,5.498-37.776,22.155-43.275,43.275H64.955v-85.102c0-20.144-30.489-20.165-30.489,0v200.694   c0,20.144,30.489,20.165,30.489,0v-85.102h128.847c5.498,21.119,22.156,37.776,43.275,43.275v41.832   c0,20.138,30.489,20.172,30.489,0v-41.832c21.119-5.498,37.776-22.156,43.275-43.275h128.847V352.639z M282.303,252.292   c0,16.528-13.449,29.981-29.981,29.981c-16.528,0-29.981-13.449-29.981-29.981c0-16.519,13.44-29.981,29.981-29.981   C268.841,222.311,282.303,235.751,282.303,252.292z"/>
</g>















</svg>
