<?xml version="1.0" encoding="iso-8859-1"?>
<!-- Generator: Adobe Illustrator 19.0.0, SVG Export Plug-In . SVG Version: 6.00 Build 0)  -->
<svg fill="#aeb2b7" version="1.1" id="Capa_1" xmlns="http://www.w3.org/2000/svg" xmlns:xlink="http://www.w3.org/1999/xlink" x="0px" y="0px"
	 viewBox="0 0 512 512" style="enable-background:new 0 0 512 512;" xml:space="preserve">
<g>
	<g>
		<path d="M264.526,242.666c-4.688-3.267-10.781-3.574-15.776-0.806c-4.98,2.754-7.983,8.086-7.734,13.784
			c1.084,25.488-6.533,32.622-19.175,44.414c-7.104,6.636-15.161,14.165-22.5,25.562c-21.284,32.988-25.605,66.717-12.188,91.355
			C199.281,439.241,224.374,452,256,452c50.435,0,67.207-29.648,72.715-47.329C345.165,351.966,307.05,272.036,264.526,242.666z"/>
	</g>
</g>
<g>
	<g>
		<path d="M482,452V180c16.569,0,30-13.431,30-30c0-16.569-13.431-30-30-30H30c-16.569,0-30,13.431-30,30c0,16.569,13.431,30,30,30
			v272c-16.569,0-30,13.431-30,30v15c0,8.284,6.716,15,15,15h482c8.284,0,15-6.716,15-15v-15C512,465.431,498.569,452,482,452z
			 M391,452H256H121V345c0-74.443,60.557-135,135-135s135,60.557,135,135V452z"/>
	</g>
</g>
<g>
	<g>
		<path d="M437,60h-35.57c-27.583,0-52.236-16.465-62.783-41.953C335.515,10.435,320.924,0,303.578,0h-95.156
			c-17.346,0-31.937,10.435-35.068,18.047C162.807,43.535,138.153,60,110.57,60H76c-19.53,0-37.024,12.578-43.237,30h446.474
			C473.024,72.578,456.53,60,437,60z M226,60c-8.284,0-15-6.716-15-15s6.716-15,15-15s15,6.716,15,15S234.284,60,226,60z M286,60
			c-8.284,0-15-6.716-15-15s6.716-15,15-15s15,6.716,15,15S294.284,60,286,60z"/>
	</g>
</g>
<g>
</g>
<g>
</g>
<g>
</g>
<g>
</g>
<g>
</g>
<g>
</g>
<g>
</g>
<g>
</g>
<g>
</g>
<g>
</g>
<g>
</g>
<g>
</g>
<g>
</g>
<g>
</g>
<g>
</g>
</svg>
