<svg fill="#aeb2b7" id="Capa_1" enable-background="new 0 0 511.718 511.718" height="512" viewBox="0 0 511.718 511.718" width="512" xmlns="http://www.w3.org/2000/svg"><path d="m146.332 396.859c0 8.585 4.813 15 9.116 15h200.822c4.304 0 9.116-6.415 9.116-15v-92h-219.054zm94.527-50.174h30v30h-30z"/><path d="m176.332 199.125h30v75.734h-30z"/><path d="m255.859 0-255.176 209.198 19.02 23.2 15.993-13.112v292.432h175.164v-69.859h-55.411c-21.568 0-39.116-20.187-39.116-45v-122h30v-105.734h90v105.734h39.055v-105.734h90v105.734h30v122c0 24.813-17.548 45-39.116 45h-55.411v69.859h175v-292.566l16.157 13.246 19.02-23.2z"/><path d="m240.859 441.859h30v69.859h-30z"/><path d="m305.386 199.125h30v75.734h-30z"/></svg>