<?xml version="1.0" encoding="iso-8859-1"?>
<!-- Generator: Adobe Illustrator 19.0.0, SVG Export Plug-In . SVG Version: 6.00 Build 0)  -->
<svg fill="#aeb2b7" version="1.1" id="Capa_1" xmlns="http://www.w3.org/2000/svg" xmlns:xlink="http://www.w3.org/1999/xlink" x="0px" y="0px"
	 viewBox="0 0 512.001 512.001" style="enable-background:new 0 0 512.001 512.001;" xml:space="preserve">
<g>
	<g>
		<path d="M490.072,64.351c-5.859-5.859-15.352-5.859-21.211,0l-42.422,42.422c-5.859,5.859-15.352,5.859-21.211,0
			c-5.845-5.845-5.845-15.366,0-21.211L447.65,43.14c5.859-5.859,5.859-15.352,0-21.211c-29.253-29.253-76.846-29.224-106.069,0
			l-49.223,49.223c-8.496,8.496-13.357,19.805-13.357,31.817v58.521c0,4.424-1.934,8.584-5.435,11.543L26.973,386.099
			c-30.776,26.06-35.728,71.206-11.045,100.649c28.394,33.888,79.685,33.282,107.431,0.513L339.072,238.13
			c2.856-3.369,7.017-5.303,11.44-5.303h58.521c12.012,0,23.32-4.688,31.816-13.184l49.223-49.223
			C519.31,141.182,519.31,93.589,490.072,64.351z M83.862,449.007c-5.858,5.858-15.355,5.858-21.213,0
			c-5.858-5.858-5.858-15.355,0-21.213c5.858-5.858,15.355-5.858,21.213,0C89.72,433.652,89.72,443.149,83.862,449.007z"/>
	</g>
</g>
<g>
	<g>
		<path d="M474.451,344.249l-114.093-81.421h-2.99l-95.784,110.783L344.49,474.78c34.025,45.347,100.24,49.967,140.244,9.962
			C524.777,444.699,520.185,378.579,474.451,344.249z"/>
	</g>
</g>
<g>
	<g>
		<path d="M177.602,113.971l-20.098-60.293c-1.244-3.766-3.954-6.886-7.514-8.673L64.134,1.588
			c-5.787-2.885-12.759-1.772-17.315,2.813L4.397,46.823c-4.57,4.57-5.698,11.543-2.813,17.314l43.42,85.853
			c1.787,3.56,4.907,6.27,8.672,7.515l60.293,20.098l50.378,50.378l68.245-59.02L177.602,113.971z"/>
	</g>
</g>
<g>
</g>
<g>
</g>
<g>
</g>
<g>
</g>
<g>
</g>
<g>
</g>
<g>
</g>
<g>
</g>
<g>
</g>
<g>
</g>
<g>
</g>
<g>
</g>
<g>
</g>
<g>
</g>
<g>
</g>
</svg>
