<svg fill="#636e72" height="512pt" viewBox="0 0 512 512" width="512pt" xmlns="http://www.w3.org/2000/svg"><path d="m277.332031 223.359375c0-11.734375-9.597656-21.332031-21.332031-21.332031s-21.332031 9.597656-21.332031 21.332031v26.667969h42.664062zm0 0"/><path d="m57.8125 337.492188v57.175781c0 32.425781 26.453125 58.878906 58.878906 58.878906h57.175782l40.53125 40.53125c11.09375 11.09375 26.027343 17.28125 41.601562 17.28125s30.507812-6.1875 41.601562-17.28125l40.53125-40.53125h57.175782c32.425781 0 58.878906-26.453125 58.878906-58.878906v-57.175781l40.53125-40.53125c11.09375-11.09375 17.28125-26.027344 17.28125-41.601563s-6.1875-30.507813-17.28125-41.597656l-40.53125-40.535157v-57.171874c0-32.429688-26.453125-58.882813-58.878906-58.882813h-57.175782l-40.53125-40.53125c-22.1875-22.1875-61.015624-22.1875-83.203124 0l-40.53125 40.53125h-57.175782c-32.425781 0-58.878906 26.453125-58.878906 58.882813v57.171874l-40.53125 40.535157c-11.09375 11.089843-17.28125 26.023437-17.28125 41.597656s6.1875 30.507813 17.28125 41.601563zm144.855469-114.132813c0-29.4375 23.890625-53.332031 53.332031-53.332031s53.332031 23.894531 53.332031 53.332031v101.332031c0 8.75-7.253906 16-16 16-8.746093 0-16-7.25-16-16v-42.664062h-42.664062v42.664062c0 8.75-7.253907 16-16 16-8.746094 0-16-7.25-16-16zm0 0"/></svg>