<svg fill="#74b9ff" id="Capa_1" enable-background="new 0 0 511.718 511.718" height="512" viewBox="0 0 511.718 511.718" width="512" xmlns="http://www.w3.org/2000/svg"><path d="m255.859 0-255.176 209.198 19.02 23.2 15.993-13.111v292.432h440.164v-292.567l16.157 13.246 19.02-23.2zm136.909 352.545-42.542-42.542h-58.154l41.121 41.121h34.506v30h-25.719v25.125h-30v-33.912l-41.121-41.12v58.154l42.527 42.527-21.213 21.213-21.314-21.314v25.352h-30v-25.352l-21.329 21.329-21.213-21.213 42.542-42.542v-58.154l-41.121 41.12v34.506h-30v-25.719h-25.125v-30h33.912l41.121-41.121h-58.154l-42.527 42.527-21.213-21.213 21.314-21.314h-21.207v-30h21.207l-21.329-21.329 21.213-21.213 42.542 42.542h58.154l-41.12-41.12h-34.506v-30h25.719v-25.125h30v33.912l41.121 41.12v-58.154l-42.542-42.542 21.213-21.213 21.329 21.329v-25.352h30v25.352l21.314-21.314 21.213 21.213-42.527 42.527v58.154l41.121-41.12v-34.507h30v25.72h25.125v30h-33.912l-41.12 41.12h58.154l42.527-42.527 21.213 21.213-21.314 21.314h21.208v30h-21.208l21.329 21.329z"/></svg>