<svg fill="#ddd" height="512pt" viewBox="0 -31 512 512" width="512pt" xmlns="http://www.w3.org/2000/svg"><path d="m90 240h15c8.289062 0 15 6.710938 15 15v45h45c8.289062 0 15 6.710938 15 15v45h152v-45c0-8.289062 6.710938-15 15-15h45v-45c0-8.289062 6.710938-15 15-15h15v-150h-332zm272-105c0-8.289062 6.710938-15 15-15s15 6.710938 15 15v60c0 8.289062-6.710938 15-15 15s-15-6.710938-15-15zm-60 0c0-8.289062 6.710938-15 15-15s15 6.710938 15 15v60c0 8.289062-6.710938 15-15 15s-15-6.710938-15-15zm-61 0c0-8.289062 6.710938-15 15-15s15 6.710938 15 15v60c0 8.289062-6.710938 15-15 15s-15-6.710938-15-15zm-61 0c0-8.289062 6.710938-15 15-15s15 6.710938 15 15v60c0 8.289062-6.710938 15-15 15s-15-6.710938-15-15zm-60 0c0-8.289062 6.710938-15 15-15s15 6.710938 15 15v60c0 8.289062-6.710938 15-15 15s-15-6.710938-15-15zm0 0"/><path d="m467 0h-422c-24.8125 0-45 20.1875-45 45v360c0 24.8125 20.1875 45 45 45h422c24.8125 0 45-20.1875 45-45v-360c0-24.8125-20.1875-45-45-45zm-362 390h-30c-8.289062 0-15-6.710938-15-15s6.710938-15 15-15h30c8.289062 0 15 6.710938 15 15s-6.710938 15-15 15zm332 0h-30c-8.289062 0-15-6.710938-15-15s6.710938-15 15-15h30c8.289062 0 15 6.710938 15 15s-6.710938 15-15 15zm15-135c0 8.289062-6.710938 15-15 15h-15v45c0 8.289062-6.710938 15-15 15h-45v45c0 8.289062-6.710938 15-15 15h-182c-8.289062 0-15-6.710938-15-15v-45h-45c-8.289062 0-15-6.710938-15-15v-45h-15c-8.289062 0-15-6.710938-15-15v-180c0-8.289062 6.710938-15 15-15h362c8.289062 0 15 6.710938 15 15zm0 0"/></svg>