<svg fill="#aeb2b7" id="Capa_1" enable-background="new 0 0 511.718 511.718" height="512" viewBox="0 0 511.718 511.718" width="512" xmlns="http://www.w3.org/2000/svg"><path d="m255.859 264.91c-10.313 0-20.008 4.016-27.3 11.308s-11.309 16.988-11.309 27.3 4.016 20.008 11.308 27.3 16.988 11.309 27.3 11.309 20.009-4.016 27.301-11.308c7.292-7.292 11.309-16.987 11.309-27.3s-4.017-20.008-11.309-27.3c-7.291-7.293-16.987-11.309-27.3-11.309z"/><path d="m255.859 0-255.176 209.198 19.02 23.2 15.993-13.111v292.432h440.164v-292.567l16.157 13.246 19.02-23.2zm95.786 186.519 21.213 21.214-39.395 39.394-21.213-21.214zm-110.786-33.462h30v55.711h-30zm-80.786 33.463 39.394 39.394-21.213 21.213-39.394-39.394zm-54.675 101.998h55.711v30h-55.711zm54.675 131.999-21.213-21.213 39.394-39.394 21.213 21.213zm110.786 33.463h-30v-55.711h30zm-15-81.853c-18.326 0-35.555-7.137-48.514-20.095-12.958-12.958-20.095-30.187-20.095-48.513s7.137-35.555 20.095-48.514c12.958-12.958 30.187-20.095 48.513-20.095s35.556 7.137 48.514 20.095c12.959 12.958 20.096 30.187 20.096 48.513s-7.137 35.555-20.096 48.514c-12.957 12.958-30.187 20.095-48.513 20.095zm95.786 48.39-39.395-39.394 21.213-21.214 39.395 39.394zm54.675-101.999h-55.711v-30h55.711z"/></svg>