<svg fill="#636e72" height="512pt" viewBox="0 0 512 512" width="512pt" xmlns="http://www.w3.org/2000/svg"><path d="m57.8125 337.492188v57.175781c0 32.425781 26.453125 58.878906 58.878906 58.878906h57.175782l40.53125 40.53125c11.09375 11.09375 26.027343 17.28125 41.601562 17.28125s30.507812-6.1875 41.601562-17.28125l40.53125-40.53125h57.175782c32.425781 0 58.878906-26.453125 58.878906-58.878906v-57.175781l40.53125-40.53125c11.09375-11.09375 17.28125-26.027344 17.28125-41.601563s-6.1875-30.507813-17.28125-41.597656l-40.53125-40.535157v-57.171874c0-32.429688-26.453125-58.882813-58.878906-58.882813h-57.175782l-40.53125-40.53125c-22.1875-22.1875-61.015624-22.1875-83.203124 0l-40.53125 40.53125h-57.175782c-32.425781 0-58.878906 26.453125-58.878906 58.882813v57.171874l-40.53125 40.535157c-11.09375 11.089843-17.28125 26.023437-17.28125 41.597656s6.1875 30.507813 17.28125 41.601563zm134.1875-151.464844c0-7.039063 4.691406-13.441406 11.519531-15.359375 6.828125-1.921875 14.082031.851562 17.921875 6.613281l34.558594 53.757812 34.558594-53.757812c3.839844-5.972656 11.308594-8.535156 17.921875-6.613281 6.828125 1.917969 11.519531 8.320312 11.519531 15.359375v138.664062c0 8.75-7.253906 16-16 16s-16-7.25-16-16v-84.265625l-18.558594 29.015625c-5.761718 8.957032-21.121094 8.957032-26.882812 0l-18.558594-29.015625v84.265625c0 8.75-7.253906 16-16 16s-16-7.25-16-16zm0 0"/></svg>